REM MD5 ff4eba0c0f13252f2ce9ab39ba4c9412
FILE "Frank Thomas Big Hurt Baseball (USA).bin" BINARY
  TRACK 01 MODE2/2352
    INDEX 01 00:00:00
  TRACK 02 AUDIO
    INDEX 00 14:51:55
    INDEX 01 14:53:55
  TRACK 03 AUDIO
    INDEX 00 17:52:05
    INDEX 01 17:54:05
REM LEADOUT 20:54:30
